<?xml version="1.0" encoding="UTF-8"?>
<svg id="Layer_1" xmlns="http://www.w3.org/2000/svg" version="1.1" viewBox="0 0 2278 1277.53">
  <!-- Generator: Adobe Illustrator 29.5.1, SVG Export Plug-In . SVG Version: 2.1.0 Build 141)  -->
  <defs>
    <style>
      .st0 {
        fill: #9f2e57;
      }
    </style>
  </defs>
  <path class="st0" d="M1687.31,32.26c21.71,8.79,42.1,21.6,64.26,29.67,65.89,23.67,137.98,13.72,206.78,15.22,87.58,1.22,124.45.91,177.44,79.52,43.24,52.98,56.8,89.95,71.48,155.66,19.43,57.94,24.83,89.88,16.67,151.08-2.51,34.46,3.46,68.71,5.17,103.06,2,42.32,1.54,85.12.91,127.56-.3,43.42-14.36,84.98-14.67,128.3,1.13,60.53,13.01,121.64-1.5,181.82-12.28,51.21-31.1,101.89-57.68,147.35-24.55,39.12-60.93,70.23-100.51,93.56-51.55,31.1-108.41,29.11-166.25,26.82-31.32-.52-62.73-.24-93.93-3.3-38.39-4.56-76.37-15-113.82-24.9-52.25-17.29-106.46-18.96-161.09-20.1-51.72-4.28-104.02-3.78-155.14-12.68-65.25-14.65-131.07-25.59-196.89-37.35-55.21-8.24-111.45-2.29-166.95-8.32-67.8-2.36-135.92,3.81-203.72,1.01-76.03.66-151.77-1.59-227.83-3.94-29.76-1.8-59.59-4.07-89.38-1.53-30.33,2.24-60.61,5.58-91.06,5.23-36.79-.09-73.63-4.84-110.54-4.82-44.92-1.9-95.84,9.12-135.89-15.32-44.79-30.08-47.42-88.81-55.38-137.6-4.91-34.03-16.38-66.88-19.38-101.18-2.08-28.82.67-57.23-5.6-85.38-8.46-37.41-24.54-75.93-12.07-114.36,13.33-50.72,57.31-82.34,94.71-115.37,21.59-20.28,41.28-42.51,61.74-63.88,31.51-31.9,58.61-68.3,90.82-99.47,87.71-72.62,208.11-74.67,309.55-117.84,50.18-23.29,105.81-34.04,155.78-57.07,22.77-11.13,43.67-25.63,65.11-39.07,41.59-26.55,84.85-50.85,123.16-82.34,48.15-35.09,89.21-85.88,149.84-97.91,20.59-4.5,41.81-6.26,62.56-10.39,20.47-3.92,40.54-9.51,61.14-12.41,32.06-4.99,65.67-2.45,98.39-.95,38.73.53,77.81,2.69,116.33,4.01,81.78.87,169.49-13.44,247.26,17.55l.17.07Z"/>
</svg>