<?xml version="1.0" encoding="UTF-8"?>
<svg id="Layer_1" xmlns="http://www.w3.org/2000/svg" version="1.1" viewBox="0 0 2278 1277.53">
  <!-- Generator: Adobe Illustrator 29.5.1, SVG Export Plug-In . SVG Version: 2.1.0 Build 141)  -->
  <defs>
    <style>
      .st0 {
        fill: #9f2e57;
      }
    </style>
  </defs>
  <path class="st0" d="M1268.44,43.63c13.58,0,27.85.7,41.66,1.39,3.96.19,7.9.39,11.84.57l.56.03h.56c25.31.35,51.38,1.43,76.59,2.48,12.79.53,26.02,1.08,39.01,1.52h.41s.41.02.41.02c2.56.03,5.21.04,7.89.04,18.63,0,37.57-.67,55.88-1.31,17.99-.63,36.6-1.29,54.57-1.29,33.53,0,77.02,2,116.17,17.55l.07.03.1.04c8.54,3.46,17.24,7.83,26.46,12.47,12.26,6.17,24.94,12.54,38.96,17.65l.07.03.07.02c44.43,15.96,89.93,18.12,128.59,18.12,12.74,0,25.53-.26,37.9-.51,11.94-.24,24.28-.49,36.15-.49,5.46,0,10.44.05,15.22.15h.14s.14,0,.14,0l2.76.04c39.02.54,67.21.93,87.88,8.75,13.94,5.28,31.76,15.97,58.27,55.29l.89,1.33,1.01,1.24c38.46,47.13,50.32,77.96,64.44,141.16l.4,1.77.58,1.72c17.83,53.17,22.52,80.18,15.16,135.33l-.14,1.04-.08,1.05c-1.88,25.81.37,50.49,2.55,74.37,1.04,11.43,2.03,22.22,2.56,32.98h0c1.92,40.53,1.53,80.73.87,125.3v.14s0,.14,0,.14c-.13,18.91-3.39,38.21-6.85,58.65-3.76,22.22-7.65,45.19-7.82,69.64v.45s0,.45,0,.45c.34,18.39,1.62,36.69,2.86,54.38,2.91,41.68,5.66,81.05-3.4,118.63-12.29,51.25-30.31,97.46-53.57,137.36-19.41,30.73-49.95,58.93-88.35,81.56l-.15.09-.15.09c-14.41,8.69-30.23,14.68-48.37,18.32-15.72,3.15-33.44,4.62-55.77,4.62-14.31,0-29.37-.6-42.65-1.12l-.4-.02h-.4c-6.17-.11-12.41-.18-18.44-.25-25.09-.29-48.79-.57-72.31-2.86-33.43-4.01-68.07-13.19-101.58-22.06l-6.05-1.6c-58.23-19.06-117.14-20.41-169.25-21.5-17.62-1.44-35.31-2.35-52.43-3.23-34.01-1.75-66.15-3.4-97.69-8.83-54.24-12.15-109.4-21.88-162.75-31.3-11.41-2.01-23.21-4.1-34.8-6.17l-.49-.09-.5-.07c-32.34-4.83-64.33-5.14-95.27-5.44-25.39-.25-49.38-.48-73.07-3.06l-1.28-.14-1.29-.04c-11.04-.38-22.53-.57-35.14-.57-22.21,0-44.59.59-66.23,1.16-21.19.56-43.1,1.14-64.39,1.14-13.72,0-26.06-.23-37.73-.72l-.88-.04h-.88c-8.81.08-17.95.12-27.17.12-68.41,0-137.63-2.13-198.75-4.02-2.45-.15-4.91-.3-7.36-.45-17.84-1.1-36.28-2.24-54.97-2.24-11.26,0-21.54.41-31.43,1.24-7.05.52-14.15,1.1-21.01,1.67-21.75,1.79-42.29,3.48-62.79,3.48-1.36,0-2.72,0-4.09-.02h-.16s-.16,0-.16,0c-17.07-.04-34.2-1.15-52.34-2.33-18.68-1.21-37.98-2.47-57.56-2.49-3.99-.16-8.16-.23-12.71-.23-8.74,0-17.5.29-25.98.57-8.42.28-16.36.54-24.23.54-25.71,0-42.17-3.2-54.8-10.68-10.85-7.5-18.62-18.58-24.41-34.79-6.26-17.53-9.35-38.74-12.33-59.26-.93-6.37-1.89-12.96-2.93-19.39-2.36-16.21-5.96-31.72-9.44-46.72-4.19-18.07-8.16-35.15-9.65-51.92-.64-8.95-.76-18.06-.9-27.7-.28-19.98-.56-40.65-5.43-62.5v-.06s-.02-.05-.02-.05c-1.87-8.29-4.05-16.46-6.15-24.36-7.24-27.22-13.5-50.73-6.77-71.48l.31-.95.25-.97c8.76-33.34,37.68-58.14,68.3-84.4,5.17-4.43,10.52-9.02,15.73-13.63l.4-.36.39-.37c15.98-15.01,30.83-30.88,45.19-46.23,5.79-6.19,11.79-12.6,17.68-18.75,15.32-15.52,29.51-31.89,43.24-47.72,15.44-17.8,30.04-34.64,45.85-50.05,49.26-40.29,111.72-56.45,177.82-73.54,40.48-10.47,82.34-21.29,122.08-38.21l.52-.22.51-.24c23.3-10.82,48.17-18.79,74.5-27.24,26.77-8.59,54.46-17.47,81.19-29.79l.36-.17.36-.18c19.25-9.41,36.71-20.62,53.6-31.47,4.85-3.11,9.86-6.33,14.73-9.39l.12-.08.12-.08c9.88-6.31,20.12-12.65,30.03-18.79,32.02-19.83,65.12-40.32,95.74-65.38,14.35-10.53,27.84-22.08,40.9-33.25,30.72-26.3,59.74-51.15,94.31-58.01l.33-.07.33-.07c9.83-2.15,20.15-3.64,31.08-5.22,9.96-1.44,20.25-2.93,30.72-5.01,8.4-1.61,16.6-3.45,24.53-5.23,12.1-2.72,23.54-5.29,34.79-6.87l.25-.04.25-.04c10.92-1.7,23.32-2.53,37.91-2.53M1268.44,8.63c-14.59,0-29.1.73-43.3,2.94-20.6,2.9-40.67,8.49-61.14,12.41-20.75,4.13-41.97,5.89-62.56,10.39-60.63,12.03-101.7,62.81-149.84,97.91-38.31,31.49-81.57,55.79-123.16,82.34-21.43,13.44-42.33,27.94-65.11,39.07-49.98,23.02-105.61,33.77-155.78,57.07-101.44,43.17-221.84,45.22-309.55,117.84-32.2,31.17-59.31,67.57-90.82,99.47-20.46,21.37-40.15,43.6-61.74,63.88-37.41,33.03-81.39,64.65-94.71,115.37-12.48,38.42,3.61,76.95,12.07,114.36,6.27,28.16,3.51,56.57,5.6,85.38,3,34.3,14.47,67.15,19.38,101.18,7.97,48.79,10.59,107.52,55.38,137.6,22.18,13.54,47.7,16.2,73.69,16.2,16.8,0,33.79-1.11,50.21-1.11,4.03,0,8.04.07,11.99.23.09,0,.17,0,.26,0,36.82,0,73.57,4.73,110.27,4.82,1.5.02,2.99.03,4.49.03,28.94,0,57.73-3.13,86.57-5.25,9.55-.82,19.1-1.14,28.66-1.14,20.25,0,40.51,1.44,60.73,2.66,66.89,2.07,133.54,4.06,200.36,4.06,9.15,0,18.31-.04,27.47-.12,13.05.54,26.11.75,39.18.75,43.52,0,87.11-2.3,130.62-2.3,11.32,0,22.63.16,33.93.55,55.5,6.03,111.75.08,166.95,8.32,65.82,11.76,131.64,22.71,196.89,37.35,51.11,8.9,103.42,8.4,155.14,12.68,54.64,1.14,108.85,2.81,161.09,20.1,37.45,9.9,75.42,20.33,113.82,24.9,31.2,3.06,62.62,2.78,93.93,3.3,14.77.59,29.47,1.15,44.04,1.15,42.49,0,83.83-4.81,122.22-27.97,39.59-23.33,75.96-54.44,100.51-93.56,26.58-45.45,45.4-96.13,57.68-147.35,14.51-60.18,2.64-121.29,1.5-181.82.31-43.32,14.37-84.88,14.67-128.3.62-42.44,1.09-85.23-.91-127.56-1.71-34.35-7.68-68.6-5.17-103.06,8.17-61.2,2.76-93.15-16.67-151.08-14.68-65.72-28.24-102.68-71.48-155.66-52.99-78.61-89.85-78.29-177.44-79.52-5.31-.12-10.64-.16-15.98-.16-24.5,0-49.33,1-74.05,1-39.76,0-79.26-2.58-116.75-16.05-22.16-8.07-42.55-20.88-64.26-29.67l-.17-.07c-41.11-16.38-84.98-20.11-129.3-20.11-36.97,0-74.24,2.59-110.45,2.59-2.51,0-5.02-.01-7.52-.04-38.52-1.32-77.6-3.48-116.33-4.01-18.23-.83-36.74-1.99-55.1-1.99h0Z"/>
</svg>