<?xml version="1.0" encoding="UTF-8"?>
<svg id="Layer_1" xmlns="http://www.w3.org/2000/svg" version="1.1" viewBox="0 0 3631 2477.22">
  <!-- Generator: Adobe Illustrator 29.5.1, SVG Export Plug-In . SVG Version: 2.1.0 Build 141)  -->
  <defs>
    <style>
      .st0 {
        fill: #a02e57;
      }
    </style>
  </defs>
  <path class="st0" d="M736.27,2461.22c-33.55,0-64.45-17.64-82.08-46.18-64.97-105.17-223.8-192.69-281.53-269.79-15.18-20.27-128.04-198.84-132.11-211.02-82.02-245.3-54.44-543.07-103.21-755.84-5.87-25.62-4.13-58.69-6.36-83.07-11.76-128.93-7.23-116.9,4.03-149.08,13.61-38.9-2.48-46.7,18.08-92.75,114.05-255.42,264.14-185.65,496.17-269.57,347.2-125.58,545.83-159.19,880.45-234.67,256.7-57.9,522.47-167.34,765.5-268.46,24.57-10.22,28.03-56.54,51.73-61.82,56.83-12.66,268.29-11.99,331.24-3.9,15.98,2.05,175.96,54.26,265.14,71.17,186.96,35.46,121.61,121.39,161.41,190.12,36.86,63.65,194.76,189.32,241.28,245.62,14.08,17.04,149.11,240.89,152.46,255.75,11.28,50.12,11.28,237.44.06,287.63-5.46,24.4-56.75,20.3-71.58,69.38-68.24,225.86-94.52,342.68-180.36,554.52-56.96,140.55-27.63,406.92-67.94,470.61-12.34,19.5-58.02,24.92-71.11,44.56-25.36,38.02-17.54,88.29-60.03,125.3-7.38,6.42-158.31,99.26-168.04,100.41-563.18,66.79-1263.69-51.53-1843.89-5.69-7.21.57-14.33,1.98-21.23,4.16l-89.2,28.17c-9.36,2.96-19.11,4.46-28.93,4.46h-159.95Z"/>
</svg>