<?xml version="1.0" encoding="UTF-8"?>
<svg id="Layer_1" xmlns="http://www.w3.org/2000/svg" version="1.1" viewBox="0 0 3631 2477.22">
  <!-- Generator: Adobe Illustrator 29.5.1, SVG Export Plug-In . SVG Version: 2.1.0 Build 141)  -->
  <defs>
    <style>
      .st0 {
        fill: #a02e57;
      }
    </style>
  </defs>
  <path class="st0" d="M2526.31,79.21c59.09,0,115.01,2.01,140.78,5.04,7.59,1.86,30.59,8.65,51.03,14.68,59.94,17.69,150.52,44.41,212.16,56.1,57.67,10.94,74.57,24.67,79.16,30.07,4.97,5.84,6.54,17.11,8.9,36.52,3.1,25.52,6.96,57.27,25.81,89.83,13.26,22.9,34.92,48.96,70.25,84.49,27.52,27.69,58.86,56.58,89.16,84.52,35.25,32.5,71.68,66.1,87.76,85.24,5.98,8.38,32.34,50.07,72.34,116.69,39.2,65.29,60.53,102.94,67.56,116.44,2.98,19.5,5.71,64.78,5.72,122.7,0,46.05-1.71,84.14-3.91,107.65-22.71,12.14-57.99,35.33-73.1,85.31-16.66,55.15-30.52,102.73-43.92,148.76-41.01,140.83-70.63,242.59-134.31,399.72-35.01,86.39-41,203.6-46.29,307.02-1.97,38.47-3.82,74.81-7.02,104.14-2.33,21.38-4.88,33.99-6.75,41.09-2.07.91-4.19,1.82-5.97,2.58-20.39,8.73-48.32,20.68-66.4,47.79-16.44,24.66-23.51,50.05-29.19,70.45-6.11,21.95-9.4,31.85-16.76,39.21-20.2,13.57-113.93,70.78-143.14,86.66-113.39,12.91-240.8,19.19-389.01,19.19-181.71,0-374.47-9.49-560.88-18.66-188.32-9.27-383.06-18.85-568.63-18.85-115.34,0-217.27,3.62-311.63,11.08-12.42.98-24.8,3.4-36.8,7.19l-89.19,28.17c-2.54.8-5.18,1.21-7.85,1.21h-159.95c-9.09,0-17.52-4.85-22.53-12.97-43.2-69.94-116.64-129.02-181.44-181.15-43.17-34.73-83.95-67.54-103.6-93.78-12.31-16.63-107.24-166.64-123.22-195.66-43.46-132.61-53.63-284.14-63.46-430.75-7.57-112.77-14.71-219.3-36.46-314.16-2.29-9.97-2.8-26.69-3.24-41.43-.32-10.67-.66-21.71-1.63-32.36-3.56-38.99-5.48-63.69-6.24-80.07-.7-15.08-.25-20.41-.08-21.73.34-.98,1.14-3.01,1.79-4.68,1.35-3.44,3.03-7.72,4.92-13.12,9.87-28.21,10.13-48.55,10.3-62,.13-10.05.16-13.09,5.63-25.32,16.94-37.95,34.63-67.87,54.08-91.47,16.21-19.67,33.78-34.95,53.73-46.7,40.61-23.93,89.98-33.12,152.47-44.74,57.23-10.65,122.09-22.72,195.77-49.37,284.42-102.87,464.11-142.32,712.82-196.92,50.48-11.08,102.69-22.54,159.23-35.3,268.52-60.57,550.45-177.86,776.98-272.11,33.43-13.91,49.52-42.03,59.25-60.88,27.77-2.9,77.93-5.35,144.96-5.35M2526.31,9.21c-73.06,0-148.72,2.95-179.37,9.78-23.7,5.28-27.16,51.59-51.73,61.82-243.03,101.11-508.8,210.55-765.5,268.46-334.63,75.48-533.25,109.09-880.45,234.67-232.03,83.92-382.12,14.16-496.17,269.57-20.56,46.04-4.47,53.84-18.08,92.75-11.26,32.18-15.79,20.15-4.03,149.08,2.22,24.38.48,57.45,6.36,83.07,48.77,212.77,21.19,510.54,103.21,755.84,4.07,12.17,116.93,190.75,132.11,211.02,57.73,77.1,216.56,164.62,281.53,269.79,17.63,28.54,48.54,46.18,82.09,46.18h159.95c9.81,0,19.57-1.5,28.93-4.46l89.2-28.17c6.9-2.18,14.02-3.59,21.23-4.16,98.98-7.82,201.41-10.86,306.12-10.86,367.56,0,762.52,37.51,1129.51,37.51,141.27,0,278.43-5.56,408.26-20.96,9.73-1.15,160.67-93.99,168.04-100.41,42.49-37.01,34.67-87.28,60.03-125.3,13.1-19.64,58.77-25.06,71.11-44.56,40.31-63.69,10.98-330.05,67.94-470.61,85.84-211.84,112.12-328.66,180.36-554.52,14.83-49.08,66.12-44.97,71.58-69.38,11.23-50.18,11.23-237.51-.06-287.63-3.34-14.86-138.38-238.71-152.46-255.75-46.52-56.3-204.42-181.96-241.28-245.62-39.8-68.73,25.55-154.66-161.41-190.12-89.18-16.91-249.16-69.12-265.14-71.17-28.99-3.73-89.49-5.88-151.87-5.88h0Z"/>
</svg>