<?xml version="1.0" encoding="UTF-8"?>
<svg id="Layer_1" xmlns="http://www.w3.org/2000/svg" version="1.1" viewBox="0 0 1162 581">
  <!-- Generator: Adobe Illustrator 29.5.1, SVG Export Plug-In . SVG Version: 2.1.0 Build 141)  -->
  <defs>
    <style>
      .st0 {
        fill: #9f2e57;
      }
    </style>
  </defs>
  <path class="st0" d="M863.83,7.02c20.85,4.94,40.7,13.97,62.51,14.19,30.81,1.03,61.71-.55,92.51,1.88,45.19,1.07,91.24,12.45,114.39,55.18,9.74,16.78,11.05,35.56,11.21,55.57.4,11.24-.44,23.39-4.03,33.85-8.28,23.14-11.74,28.45-8.18,53.83,1.28,15.2,2.47,30.56-3.18,44.8-2.72,6.9-7.07,12.76-11.57,18.15-4.64,5.5-9.11,10.42-10.66,16.44-4.33,19.86,48.66,31.46,37.44,85.18-4.32,16.85-14.63,32.98-25.07,47.13-14.94,20.45-31,38.99-56.62,45.17-15.83,4.13-32.25,7.17-48.54,9.2-21.34,2.43-42.99,1.84-64.03,6.5-22.04,4.62-43.05,13.11-64.47,19.93-20.95,6.75-42.9,9.31-64.69,12.17-34.11,5.62-68.52,8.31-102.9,11.45-21.15,1.44-42.29,4.19-63.02,8.66-17.23,4.11-31.33,13.56-48,18.63-12.64,3.94-26.54,2.67-39.91,4.12-22.21,1.93-43.67,6.13-66.22,8.53-25.57,3.32-51.1.64-76.7,1.59-21.13,1.08-42.23-.99-63.32-1.41-12.33-.5-24.75-.52-37.05-.38-11.36-.02-22.58-.34-33.98.29-18.79.6-37.67,2.49-56.53,2.57-20.76-.59-41.27-2.6-61.98-2.62-39.04.05-41.56-14.87-63.92-41.2-18.8-22.08-45.74-38.32-59.34-64.47-12.27-25.54-8.6-56.81-16.65-83.12-6.32-19.54-19.4-38.06-17.75-59.35,2.33-23.26,18.91-41.58,24.6-63.97,6.66-22.74,10.97-45.83,22.91-66.21,11.17-19.43,27.24-36.03,41.13-53.77,9.11-11.16,17.09-22.73,22.58-35.45,3.59-8.17,6.31-16.81,10.08-24.89,10.71-24.85,34.5-39.32,59.81-46.43,22.65-6.2,46.2-9.82,69.72-10.35,22.41-.72,44.65-2.53,67.06-2.09,24.19,1.28,48.34,3.33,72.59,4,24.01,1.32,47.96-1.22,71.94-.45,44.85,3.13,89.56,3.41,134.49,1.16,18.45-.33,36.76-3.73,54.79-7.05,10.08-1.56,20.26-2.27,30.27-4.15,20.49-2.97,38.75-15.82,59.69-17.59,26.11-2.42,52.52-1.2,78.62,1.13,9.93.9,20.03,1.51,29.77,3.57l.19.04Z"/>
</svg>