<?xml version="1.0" encoding="UTF-8"?>
<svg id="Layer_1" xmlns="http://www.w3.org/2000/svg" version="1.1" viewBox="0 0 1162 581">
  <!-- Generator: Adobe Illustrator 29.5.1, SVG Export Plug-In . SVG Version: 2.1.0 Build 141)  -->
  <defs>
    <style>
      .st0 {
        fill: #9f2e57;
      }
    </style>
  </defs>
  <path class="st0" d="M785.42,20.95c13.73,0,28.56.75,46.65,2.37,1.72.16,3.45.3,5.17.45,7.88.67,15.32,1.31,22.18,2.75,5.96,1.42,11.95,3.24,18.29,5.17,15.02,4.57,30.55,9.29,48.19,9.51,12.4.41,24.97.41,36.06.41h1.72c17.57,0,35.74,0,53.6,1.41l.55.04h.55c23.62.57,42.68,3.99,58.27,10.46,17.74,7.36,30.5,18.57,39.01,34.27l.14.26.15.26c6.9,11.89,8.35,25.76,8.51,45.69v.27s.01.27.01.27c.38,10.63-.63,19.8-2.92,26.54-.84,2.34-1.63,4.5-2.36,6.51-7.32,20-10.42,30.03-6.82,56.14,1.09,13.01,2.06,25.28-1.9,35.24-1.79,4.52-5.18,8.91-8.27,12.62l-1,1.18c-4.97,5.86-11.16,13.15-13.73,23.18l-.09.35-.08.35c-4.03,18.45,9.19,31.16,18.83,40.44,12.4,11.93,23.13,22.25,18.66,44.47-3.86,14.55-14.2,29.65-21.68,39.79l-.03.04-.03.04c-14.95,20.47-27.14,33.18-45.16,37.53l-.18.04-.18.05c-14.46,3.78-29.89,6.7-45.85,8.69-7.23.82-14.55,1.27-22.29,1.75-14.12.87-28.72,1.78-43.58,5.06-16.6,3.49-32.33,8.89-47.53,14.12-6.18,2.13-12.58,4.32-18.79,6.3h-.03s-.03.02-.03.02c-17.71,5.71-36.53,8.16-56.45,10.76-1.57.21-3.14.41-4.71.62l-.32.04-.32.05c-28.91,4.76-58.91,7.45-87.92,10.04-4.44.4-8.87.79-13.31,1.2-23.04,1.58-45.12,4.62-65.65,9.05l-.21.05-.21.05c-11.34,2.71-20.89,7.05-30.14,11.24-6.58,2.99-12.79,5.81-19.05,7.71l-.07.02-.07.02c-5.77,1.8-13.09,2.08-20.85,2.38-4.84.19-9.85.38-15.05.93-12.66,1.11-25.06,2.91-37.05,4.66-9.6,1.4-19.52,2.84-29.34,3.89l-.23.02-.23.03c-8.29,1.08-17.31,1.56-29.25,1.56-5.16,0-10.48-.09-15.63-.17-5.31-.09-10.81-.18-16.3-.18-5.02,0-9.49.08-13.68.23h-.14s-.14.01-.14.01c-3.72.19-7.59.28-11.83.28-9.13,0-18.21-.43-27.83-.88-7.18-.34-14.6-.68-22.03-.84-7.77-.31-16.11-.47-25.49-.47-3.8,0-7.81.02-12.25.08-2.64,0-5.26-.03-7.89-.05-3.07-.03-6.24-.05-9.41-.05-6.9,0-12.3.13-17.47.41-8.01.26-16.02.74-23.78,1.21-10.94.66-21.28,1.28-31.63,1.34-8.28-.24-16.78-.73-25.01-1.2-12.08-.69-24.57-1.41-37.21-1.42h-.13s-.07,0-.07,0c-14.26,0-19.73-2.37-22.6-4.15-4.48-2.77-8.66-8.2-14.45-15.71-3.25-4.22-6.94-9-11.45-14.31-7.88-9.26-16.71-17.29-25.25-25.06-12.63-11.49-24.56-22.34-31.43-35.38-5.45-11.54-6.99-25.8-8.62-40.9-1.38-12.84-2.82-26.12-6.79-39.12l-.05-.16-.05-.15c-2.28-7.04-5.15-13.6-7.93-19.94-5.15-11.74-9.59-21.88-8.93-31.5.99-9.32,5.61-18.44,10.95-28.99,4.91-9.69,9.98-19.71,13.02-31.45,1.54-5.26,2.95-10.51,4.31-15.59,4.47-16.65,8.7-32.37,16.56-45.81l.04-.07.04-.07c6.94-12.07,16.29-23.25,26.19-35.09,4.37-5.22,8.88-10.62,13.22-16.16,11.65-14.29,19.69-26.99,25.29-39.93,1.82-4.15,3.38-8.23,4.88-12.18,1.66-4.37,3.24-8.49,4.99-12.25l.13-.27.12-.28c8.88-20.6,30.33-30.44,46.78-35.08,21.56-5.9,43.38-9.14,64.83-9.63h.09s.09,0,.09,0c7.5-.24,15.03-.6,22.31-.95,12.78-.62,24.86-1.2,37.08-1.2,2.15,0,4.27.02,6.32.06,8.39.45,16.96,1,25.26,1.53,15.41.99,31.33,2.02,47.23,2.46,5.03.27,10.32.4,16.17.4,8.11,0,16.19-.26,24.01-.5,7.84-.25,15.25-.48,22.72-.48,3.15,0,6.05.04,8.85.13,25.35,1.76,51.34,2.66,77.23,2.66,19.34,0,39.18-.5,58.95-1.48,19.78-.39,38.78-3.89,57.16-7.27l.28-.05c3.81-.58,7.69-1.04,11.79-1.53,5.96-.71,12.12-1.44,18.44-2.61,11.73-1.76,22-5.78,31.93-9.67,9.24-3.62,17.96-7.03,26.17-7.73h.08s.08-.01.08-.01c8.97-.83,18.23-1.24,28.31-1.24h0M785.42.95c-10.07,0-20.14.39-30.16,1.32-20.94,1.78-39.21,14.63-59.69,17.59-10.01,1.88-20.19,2.59-30.27,4.15-18.03,3.32-36.34,6.72-54.79,7.05-19.46.97-38.86,1.47-58.27,1.47-25.4,0-50.79-.86-76.22-2.63-3.29-.11-6.57-.15-9.86-.15-15.57,0-31.14.99-46.73.99-5.11,0-10.23-.11-15.35-.39-24.25-.67-48.4-2.72-72.59-4-2.35-.05-4.69-.07-7.04-.07-20.04,0-39.96,1.52-60.03,2.16-23.52.53-47.07,4.14-69.72,10.35-25.3,7.11-49.09,21.58-59.81,46.43-3.77,8.08-6.49,16.71-10.08,24.89-5.5,12.72-13.48,24.29-22.58,35.45-13.89,17.73-29.96,34.33-41.13,53.77-11.93,20.37-16.24,43.47-22.91,66.21-5.69,22.39-22.28,40.71-24.6,63.97-1.65,21.3,11.43,39.81,17.75,59.35,8.04,26.31,4.38,57.58,16.65,83.12,13.6,26.15,40.55,42.39,59.34,64.47,22.33,26.28,24.87,41.2,63.72,41.2.06,0,.13,0,.2,0,20.71.02,41.22,2.03,61.98,2.62,18.86-.08,37.74-1.97,56.53-2.57,5.56-.31,11.08-.39,16.6-.39,5.79,0,11.57.09,17.38.1,4.04-.05,8.1-.08,12.16-.08,8.3,0,16.61.12,24.89.46,16.81.34,33.63,1.72,50.47,1.72,4.28,0,8.57-.09,12.85-.31,4.32-.16,8.63-.22,12.94-.22,10.65,0,21.29.35,31.93.35s21.22-.35,31.83-1.72c22.55-2.4,44.01-6.59,66.22-8.53,13.37-1.45,27.27-.18,39.91-4.12,16.68-5.07,30.77-14.52,48-18.63,20.73-4.47,41.87-7.22,63.02-8.66,34.38-3.14,68.79-5.83,102.9-11.45,21.79-2.87,43.73-5.42,64.69-12.17,21.41-6.82,42.42-15.31,64.47-19.93,21.04-4.67,42.68-4.08,64.03-6.5,16.29-2.03,32.71-5.07,48.54-9.2,25.62-6.18,41.68-24.72,56.62-45.17,10.44-14.15,20.75-30.28,25.07-47.13,11.22-53.73-41.77-65.32-37.44-85.18,1.54-6.02,6.01-10.94,10.66-16.44,4.5-5.38,8.85-11.25,11.57-18.15,5.65-14.23,4.46-29.6,3.18-44.8-3.56-25.38-.1-30.7,8.18-53.83,3.59-10.47,4.43-22.62,4.03-33.85-.16-20.02-1.46-38.79-11.21-55.57-23.15-42.73-69.19-54.11-114.39-55.18-18.37-1.45-36.77-1.47-55.17-1.47h-1.72c-11.88,0-23.76,0-35.62-.41-21.82-.22-41.67-9.25-62.52-14.19l-.19-.04c-9.74-2.06-19.84-2.67-29.77-3.57-16.09-1.44-32.28-2.45-48.46-2.45h0Z"/>
</svg>