<?xml version="1.0" encoding="UTF-8"?>
<svg id="Layer_1" xmlns="http://www.w3.org/2000/svg" version="1.1" viewBox="0 0 3351.83 1690">
  <!-- Generator: Adobe Illustrator 29.5.1, SVG Export Plug-In . SVG Version: 2.1.0 Build 141)  -->
  <defs>
    <style>
      .st0 {
        fill: #9f2e57;
      }
    </style>
  </defs>
  <path class="st0" d="M3170.87,932.92c-.54,13.09,6.16,25.24,14.12,35.61,11.54,14.55,24.41,28.91,29.37,47.25,5.33,17.82,5,38.12,8,57.03,3.46,24.71,13.31,47.7,25.57,69.44,19.86,35.57,44.06,71.75,41.78,114.08-2.4,46.49-28.84,91.23-61.07,123.6-74.13,71.6-185.92,158.47-277.06,216.48-15.6,9.59-31.23,18.33-48.79,24.47-21.62,7.74-44.75,10.22-67.18,10.77-190.59,5.65-421.74-75.14-612.04-19.78-27.37,8.19-52.02,22.25-77.62,34.44-15.28,7.01-30.55,11.23-47.66,13.81-15.47,2.32-30.84,3.68-46.02,4.61-79.67,2.57-151.31.72-242.18,2.36-507.73,4.05-1241.62,23.3-1395.48,21.04-5.25-.96-12.32-3.15-20.99-7.4-8.37-3.98-16.41-9.29-24.04-15.11-50.44-39.76-71.38-111.69-97.77-167.21-2.98-5.64-6.31-10.87-10.29-15.37-17.64-21.43-49.05-18.71-70.95-33.43-15.57-10.26-24.36-27.38-35.12-42.11-20.02-28.51-52.73-45.12-80.89-63.83-13.92-8.9-27.71-19.17-37.03-32.83-7.62-10.87-11.66-23.81-14.22-37.05-4.09-23.43-7.65-48.55-10.62-73.15-4.97-42.48-9.72-82.52-13.8-122.6-6.23-56.78-6.36-116.01,17.27-169.36,15.68-37.24,45.34-63.83,65.75-97.68,16.54-27.65,26.28-60.11,33.09-91.84,29.19-126.25,4.54-302.3,68.24-412.48,11.96-18.33,29.94-30.79,45.51-45.63,10.92-10.28,20.35-22.72,27.96-35.92,5.59-9.51,10.48-19.47,15.21-29.44,8.44-17.38,15.27-34.14,29.4-45.04,8.82-6.84,19.49-10.97,30.26-14.47,14.2-4.58,28.52-9.34,41.28-17.21,12.57-7.54,24.4-17.28,37.23-24.74,9.56-5.69,19.96-10.27,30.49-13.6,504.83-110.31,1279.13-12.78,1861.87-28.6,9.49-.7,19.01-2.25,28.31-4.78,21.89-5.77,41.93-17.19,64.11-21.93,16.73-3.66,33.76-4.56,50.63-5.36,129.22-5.58,299.21-20.63,411.18-24.64,26.96-1.37,53.52-.56,74.91,19.46,16.07,14.74,26.42,34.85,36.05,54.21,11.62,23.89,22.34,47.25,34.26,70.2,6.38,12.1,13.36,24.01,22.5,34.2,17.72,20.11,42.9,32,63.34,49.48,11.88,9.76,23.03,20.54,35.78,29.17,8.21,5.61,17.12,10.18,26.36,13.85,27.69,10.57,54.73,14.98,65.93,45.47,6.78,17.56,9.91,36.95,17.12,54.48,12.62,31.53,33.56,59.66,45.65,91.64,7.1,17.83,11.59,36.78,11.24,56.02-.13,13.8-2.43,27.58-4.01,41.32-2.31,18.03-1.46,36.28,2.58,53.95,3.52,16.14,7.96,31.88,8.24,48.33.32,11.97-1.34,23.95-3.86,35.72-10.09,44.73-26.46,88.62-54.51,125.32-15.93,21.45-31.06,42.52-45.85,65.02-10.52,16.18-20.78,31.26-21.52,49.56v.17Z"/>
</svg>