<?xml version="1.0" encoding="UTF-8"?>
<svg id="Layer_1" xmlns="http://www.w3.org/2000/svg" version="1.1" viewBox="0 0 3351.83 1690">
  <!-- Generator: Adobe Illustrator 29.5.1, SVG Export Plug-In . SVG Version: 2.1.0 Build 141)  -->
  <defs>
    <style>
      .st0 {
        fill: #9f2e57;
      }
    </style>
  </defs>
  <path class="st0" d="M2871.41,54.93c15.22,0,17.89,2.5,19.17,3.7l.22.21.22.2c8.45,7.75,16.38,23.64,22.77,36.49,3.53,7.26,7.06,14.65,10.47,21.79,7.74,16.2,15.75,32.96,24.38,49.57l.09.17.09.17c7.44,14.1,16.91,30.59,30.68,46.02,15.59,17.64,33.04,29.56,48.44,40.08,7.77,5.31,15.1,10.32,20.78,15.17l.45.38.45.37c3.17,2.61,6.48,5.47,9.98,8.5,8.7,7.53,18.56,16.07,30.18,23.94,11.5,7.84,24.27,14.56,37.96,20l.37.15.37.14c5.21,1.99,10.25,3.74,14.7,5.29,5.4,1.88,13.15,4.57,16.93,6.48,2.02,5.4,3.88,12.19,5.84,19.36,2.92,10.68,6.24,22.77,11.35,35.28,7.48,18.64,16.53,34.92,25.29,50.66,7.79,14,15.14,27.22,19.85,39.69l.19.49.19.49c4.82,12.1,7.17,23.11,6.99,32.72v.27s0,.27,0,.27c-.06,6.82-1.13,15.15-2.25,23.96-.44,3.44-.89,7-1.32,10.67-3.15,24.91-1.95,49.88,3.57,74.22.73,3.33,1.46,6.53,2.17,9.62,2.43,10.56,4.52,19.68,4.64,26.69v.28s.01.28.01.28c.15,5.7-.66,12.65-2.49,21.25-9.68,42.78-23.94,76.07-43.58,101.77l-.25.33-.25.33c-19.39,26.11-34.13,47.02-47.81,67.82l-.08.13-.08.13-1.16,1.77c-12.08,18.55-28.63,43.96-30.02,78.05l-.02.55v.3c-.85,25.01,8.05,49.86,26.47,73.89l.3.39.31.39c1.44,1.82,2.9,3.63,4.37,5.45,5.49,6.81,13,16.14,14.09,20.18l.21.76.23.76c1.63,5.47,2.49,14.85,3.32,23.92.68,7.51,1.46,16,2.83,24.78,4.13,28.93,14.79,58.36,32.59,89.96,2.46,4.4,4.95,8.77,7.36,12.99,14.97,26.19,27.89,48.8,26.83,68.5v.07s0,.07,0,.07c-1.37,26.62-17.54,57.97-43.28,83.98-70.19,67.71-177.25,151.32-266.74,208.33-11.54,7.09-23.98,14.23-36.78,18.71l-.21.07-.21.08c-12.45,4.46-27.83,6.77-48.4,7.27h-.16s-.16,0-.16,0c-5.79.17-11.82.26-17.91.26-63.38,0-131.92-9.12-204.48-18.78-76.72-10.21-156.05-20.77-234.12-20.77-64.14,0-119.92,7.15-170.51,21.87l-.22.06-.22.07c-25.61,7.66-48.39,19.02-68.49,29.04-6,2.99-11.67,5.82-17.32,8.52-9.44,4.29-19.09,7.02-31.18,8.84-11.73,1.76-24.44,3.04-39.93,4.01-43.37,1.38-84.66,1.44-128.35,1.49-35.11.04-71.41.09-111.75.82-258.68,2.07-570.19,7.96-845.06,13.16-228.42,4.32-425.69,8.06-519.04,8.06-8.29,0-15.72-.03-22.2-.09-.83-.34-1.84-.79-3.04-1.37l-.33-.16-.33-.16c-3.59-1.71-7.96-4.5-12.99-8.31-26.91-21.45-44.79-63.48-62.08-104.14-5.83-13.71-11.86-27.9-18.3-41.44l-.54-1.14-.59-1.12c-5.36-10.15-11.16-18.77-17.71-26.32-22.02-26.2-50.42-34.36-69.27-39.78-4.7-1.35-11.77-3.38-14.01-4.6l-.06-.04-.1-.06c-2.37-1.93-7.53-9.61-10.96-14.71-2.54-3.77-5.41-8.04-8.56-12.37-22.93-32.4-54.78-52.44-80.4-68.56-5.67-3.57-11.03-6.94-16.04-10.27l-.44-.29-.44-.28c-3.86-2.47-15.62-9.99-19.78-16.09l-.22-.33-.23-.32c-.55-.79-2.47-4.06-4.34-13.5-3.64-20.95-7.02-44.29-10.05-69.38l-1.08-9.24c-4.56-38.9-8.86-75.65-12.6-112.31l-.02-.23-.03-.23c-6.71-61.16-2.85-103.88,12.49-138.52l.22-.51.22-.51c6.31-14.98,17.41-29.22,30.26-45.71,10.09-12.95,21.53-27.63,31.57-44.27l.06-.09.06-.09c17.65-29.52,30.42-64.35,40.16-109.58,12.17-52.89,15.7-111.96,19.11-169.08,4.96-82.98,10.08-168.76,41.54-224.72,4.19-5.84,11.95-12.59,20.13-19.71,5.04-4.39,10.25-8.93,15.64-14.05,14.69-13.85,27.68-30.46,38.6-49.37,6.79-11.59,12.39-23.02,17.43-33.65.99-2.04,1.96-4.06,2.92-6.08,2.85-5.98,7.11-14.9,9.37-17.62,1.01-.63,3.87-2.09,11.67-4.63,14.67-4.73,34.72-11.19,54.08-23.07,7.72-4.65,14.75-9.59,20.96-13.96,5.53-3.88,10.74-7.55,15.22-10.16l.28-.16.28-.16c4.71-2.8,10.06-5.27,15.59-7.19,86.04-18.62,182.9-31.78,295.96-40.22,99.97-7.47,211.54-11.09,341.08-11.09,177.19,0,364.38,6.85,545.41,13.48,175.35,6.42,356.66,13.06,523.02,13.06,50.89,0,97.41-.59,142.21-1.81l1.41-.04,1.41-.1c13.54-1.01,26.81-3.25,39.43-6.66,13.43-3.56,25.38-8.31,35.94-12.51,9.29-3.69,18.07-7.18,25.14-8.69l.14-.03.14-.03c12.28-2.69,27.24-3.4,40.47-4.03,63.48-2.74,136.55-7.73,207.21-12.56,75.51-5.16,146.84-10.03,203.46-12.06l.45-.02.45-.02c4.72-.24,8.44-.35,11.7-.35M2871.41-5.07c-4.88,0-9.8.18-14.74.43-111.98,4-281.97,19.06-411.19,24.64-16.87.8-33.9,1.7-50.63,5.36-22.18,4.74-42.22,16.16-64.11,21.93-9.3,2.53-18.82,4.07-28.31,4.78-45.78,1.24-92.67,1.79-140.58,1.79-334.74,0-716.31-26.54-1068.42-26.54-239.13,0-464.72,12.24-652.86,53.35-10.52,3.33-20.93,7.91-30.49,13.6-12.83,7.46-24.66,17.19-37.23,24.74-12.76,7.87-27.09,12.64-41.28,17.21-10.77,3.5-21.44,7.63-30.26,14.47-14.13,10.9-20.96,27.66-29.4,45.04-4.72,9.97-9.62,19.93-15.21,29.44-7.61,13.2-17.03,25.64-27.96,35.92-15.57,14.84-33.55,27.3-45.51,45.63-63.7,110.18-39.05,286.23-68.24,412.48-6.81,31.73-16.55,64.19-33.09,91.84-20.41,33.85-50.07,60.45-65.75,97.68-23.63,53.35-23.5,112.58-17.28,169.36,4.09,40.07,8.83,80.12,13.8,122.6,2.97,24.6,6.54,49.72,10.62,73.15,2.56,13.24,6.6,26.18,14.22,37.05,9.32,13.66,23.11,23.94,37.03,32.83,28.16,18.71,60.87,35.32,80.89,63.83,10.76,14.72,19.55,31.85,35.12,42.11,21.9,14.73,53.31,12.01,70.95,33.43,3.97,4.5,7.3,9.73,10.28,15.37,26.39,55.51,47.32,127.44,97.77,167.21,7.63,5.82,15.67,11.13,24.04,15.11,8.67,4.25,15.74,6.44,20.99,7.4,8.5.13,18.74.18,30.65.18,203.57,0,885.14-17.4,1364.83-21.22,90.87-1.64,162.51.21,242.18-2.36,15.18-.93,30.55-2.29,46.02-4.61,17.1-2.57,32.37-6.8,47.66-13.81,25.6-12.19,50.25-26.25,77.62-34.44,49-14.26,100.72-19.48,153.75-19.48,145.87,0,301.71,39.55,438.6,39.55,6.61,0,13.18-.09,19.69-.29,22.43-.55,45.57-3.03,67.18-10.77,17.55-6.14,33.19-14.88,48.79-24.47,91.14-58.01,202.92-144.87,277.06-216.48,32.23-32.37,58.67-77.11,61.07-123.6,2.28-42.32-21.92-78.5-41.78-114.08-12.26-21.74-22.11-44.73-25.57-69.44-3-18.91-2.67-39.21-8-57.03-4.96-18.34-17.83-32.7-29.37-47.25-7.95-10.37-14.66-22.52-14.12-35.6v-.17c.75-18.3,11.01-33.38,21.53-49.56,14.79-22.49,29.92-43.57,45.85-65.01,28.06-36.7,44.42-80.59,54.51-125.32,2.52-11.77,4.18-23.75,3.86-35.72-.28-16.45-4.73-32.18-8.24-48.33-4.04-17.67-4.89-35.92-2.58-53.95,1.57-13.74,3.88-27.52,4.01-41.32.35-19.23-4.14-38.19-11.24-56.02-12.09-31.98-33.03-60.11-45.65-91.64-7.21-17.54-10.34-36.92-17.12-54.48-11.2-30.49-38.23-34.9-65.93-45.47-9.25-3.67-18.15-8.24-26.36-13.85-12.75-8.63-23.91-19.4-35.78-29.17-20.43-17.48-45.61-29.38-63.34-49.48-9.14-10.2-16.11-22.11-22.5-34.2-11.92-22.95-22.64-46.31-34.26-70.2-9.63-19.36-19.98-39.47-36.05-54.21-17.48-16.36-38.4-19.89-60.17-19.89h0Z"/>
</svg>