<?xml version="1.0" encoding="UTF-8"?>
<svg id="Layer_1" xmlns="http://www.w3.org/2000/svg" version="1.1" viewBox="0 0 483 523.93">
  <!-- Generator: Adobe Illustrator 29.5.1, SVG Export Plug-In . SVG Version: 2.1.0 Build 141)  -->
  <defs>
    <style>
      .st0 {
        fill: #76acab;
      }

      .st1 {
        fill: #fdf9cb;
      }

      .st2 {
        fill: #ccd9d9;
      }
    </style>
  </defs>
  <path class="st1" d="M319.36,90.87c-6.92,1.62-13.6,3.63-20.31,5.91-8.32,2.86-17.65,5.17-22.98,11.95-5.38,7.43-5.94,16.98-8.38,25.71-9.34,39.62-23.4,71.57-40.63,111.41-5.12,11.63-9.9,22.26-14.94,33.87-2.92,6.73-6.02,13.97-8.18,19.3-1.93,4.78-3.02,7.88-1.91,11.47,3.89,10.05,15.69,16.77,19.29,27.34,3.28,8.65,2.38,18.29,2.03,27.79-.29,6.43-.67,12.74-.92,19.07-.5,19.09-.06,45.47-.2,64.24.21,4.45-.75,11.71,1.28,14.52.54.43,1.31.35,2.37-.16,2.24-1.19,4.49-3,6.58-4.76,6.19-5.09,14.02-11.07,21.76-16.72,21.26-15.43,41.48-29.5,64.42-45.65,17.02-11.95,34.36-25.56,51.21-38.12,15.6-11.68,30.57-23.32,42.77-38.94,5.74-8.11,6.28-18.36,6.09-27.95-.07-7.46.15-13.36.49-21.29,1.11-25.14,3.64-52.65,3.94-77.6-.04-22.78-1.35-49.8-.69-71.81.28-11.51.12-22.32.56-34.26.18-7.37,2.22-19.93-7.57-20.59-4.52-.36-11.15,1.7-17.43,3.43-10.74,3.04-21.46,6.51-32.1,9.91-7.01,2.2-14.54,4.87-21.34,6.46-8.36,1.94-16.52,3.35-25.05,5.41l-.17.04Z"/>
  <path class="st2" d="M426.76,60.63c-5.72,11.14-3.44,31.54-4.21,44.19-.96,27.94.35,57.33.57,85.48-.44,26.06-3.06,55.09-4.18,81.35-1.34,13.53,1.71,27.14-2.74,40.42-2.04,5.47-5.92,9.99-10,14.13-11.48,11.68-22.03,20.79-35.03,30.18-20.01,14.89-40.19,30.58-60.6,44.64-21.72,15.2-38.61,26.89-58.51,41.29-8.02,6.79-29.11,19.16-29.71,26.63.64,1.76,3.35,1.22,7.37-.33,8.39-3.77,15.38-9.85,22.74-15.31,15.81-12.51,30.11-24.51,47.54-36.12,28.09-18.36,53.5-40.09,80.64-59.95,7.73-5.61,14.49-11.43,21.71-18.15,7.59-7.41,16.01-14.15,21-23.16,4.35-8.68,3.67-19.79,3.82-29.54-.56-55.82,2.22-109.75,1.45-165.15.22-11.29,1.08-22.36,1.87-34.07.4-5.38,3.21-32.25-3.69-26.6l-.04.06Z"/>
  <path class="st0" d="M417.46,42.31c-.63-.28-1.71.67-3.1,2.57-.23.33-.44.6-.65.93-3,4.49-5.42,9.31-8.1,14.14-5.96,10.85-12.51,21.67-20.55,31.2-16.27,19.27-30.89,33.48-56.98,36.36-15.76,1.83-33.2.25-47.22-7.13-3.23-1.61-8.58-4.72-9.98-4.53-3.77.17,3.47,9.28,5.21,11.34,11.07,13.55,28.5,20.1,45.59,19.26,15.81-.51,31.89-6.95,45.62-15.55,3.57-1.78,13.54-10.19,15.14-4.46.5,1.52.52,3.97.26,7.05-.46,5.16-1.52,11.41-2.19,16.7-1.39,10.8-2.81,23.37-4.45,33.02-6.01,38.88-11.37,81.55-16.92,119.45-1.63,11.64-3.26,23.47-4.72,35.03-1.02,8.16-1.69,14.02-3.1,21.81-.93,5.07-1.76,10.6-3.92,15.26-3.81,8.96-12.26,8.34-20.56,7.97-29.66-.56-62.82,8.34-83.43,30.65-4.66,5.21-8.35,10.87-10.88,17.03-.88,2.11-1.66,4.46-2.05,6.42-.28,1.45-.28,2.47,0,2.94.42.56.93.25,1.51-.18,4.03-3.72,6.89-9.5,11.57-14.88,6.57-8.04,15.7-13.25,25.28-17.04,23.04-9.26,48.37-9.33,72.61-7.81,12.84,1.13,16.23-7.4,18.2-18.42,2.3-12.59,3.74-24.61,5.67-37.15,3.68-24.05,8.44-50.48,12.74-74.32,8.61-45.35,16.3-91.01,25.2-136.37,4.51-20.59,6.93-40.25,10.6-61.15,1.32-7.8,2.78-15,3.93-22.33.62-4.44.6-7.4-.3-7.81h-.03Z"/>
  <path class="st0" d="M200.79,86.55c-17.91-.5-38.96-2.03-56.57,3.75-26.38,9.59-64.01,39.47-81.15,61.67-4.59,7.8,4.36,2.98,7.4.68,7.42-4.49,22.47-22.25,24.39-4.41,1.29,18.34,1.3,37.42,2.72,55.91,2.58,32.71,6.65,65.2,8.37,97.99,1.13,18.6,2.66,36.44,3.72,54.87,1.01,9.62-.52,19.91,2.89,28.98,3.77,8.19,13.92,9.8,22.08,10.66,7.43.76,13.57,1.79,20.23,3.53,16.3,4.03,30.33,14.18,40.88,27.11,2.27,2.46,9.92,12.94,10.66,9.58-3.86-18.39-21.18-34.79-37.04-44.67-8.21-5.32-16.61-9.5-26.08-12.28-7.5-2.31-16.95-4.05-21.77-10.66-2.92-4.17-3.39-9.8-3.89-15.13-.44-5.08-.94-10.36-1.36-15.43-2.03-24.31-.72-51.75-1.09-76.48-.08-16.34-1.67-31.73-2.31-48.08-.73-22.38-2.38-43.5-1.64-65.52-.06-28.06,6.5-31.41,30.55-42.69,9.06-4.51,19.45-5.9,29.65-5.93,11.27,0,21.6-.55,32.04,2.76,14.67,5.11,28.96,12.85,37.24,26.71,14.5,26.09,21.79,56.39,16.72,86.12-2.18,21.1-11.43,40.19-24.13,56.87-8.09,10.73-16.71,18.84-27.08,28.56-3.69,3.53-7.74,6.99-9.97,11.6-4.32,7.91,7.24,16.2,13.07,16.95,4.15.4,3.25-3.38,2.84-8.36-2.54-12.54,8.98-20.13,16.67-28.8,32.17-35.11,57.57-74.8,45.59-124.08-5.19-23.62-14.23-50.41-31.88-67.39-10.77-10.13-27.05-13.48-41.6-14.39h-.16Z"/>
  <path class="st0" d="M188.09,154.96c1.35,9.68,13.48,9.67,13.43-.48-.88-10.45-13.9-10.28-13.45.31l.02.17Z"/>
  <path class="st0" d="M168.55,163.35c7.04,3.33,13.65-6.63,8.7-12.25-7.82-7.87-18.85,6.84-8.84,12.18l.14.06Z"/>
  <path class="st0" d="M160.08,186.41c-5.31,8.02-5.97,19.37.55,26.79,8.11,9.24,25.31,9.73,35.94,2.6,9.8-6.16,13.8-20.21,7.74-30.21-9.02-14.97-35.07-14.09-44.14.68l-.09.14ZM167.71,196.78c.07-8.62,8.24-15.43,16.64-14.14,13.87,2.02,13.48,25.72.97,29.84-9.65,3.19-18.26-6.08-17.62-15.54v-.17Z"/>
  <path class="st0" d="M357.79,162.12c-.62-.89-2.67-.96-5.44-.29-2.32.54-5.08,1.57-7.81,2.7-7.18,3.06-14.49,5.61-22.2,7.09-10.03,2.6-25.32,1.56-29.82,12.33-2.07,4.97-2.72,16.01.81,19.91,2.13,1.51,4.63-2.26,5.97-3.6,8.29-10.46,14.68-14.91,27.39-19.5,9.83-4.04,20.64-7.15,28.74-14.13,1.35-1.13,3.21-3.63,2.39-4.47l-.03-.04ZM301.6,188.8c-.05-.14.13-.3.29-.34-.05.14-.13.27-.27.34h-.02Z"/>
  <path class="st0" d="M75.03,337.85c-1.47,5.37-.57,13.54-.16,19.66.79,9.73,1.34,20.5,1.93,29.89,1.44,12.91-.54,33.45,16.44,35.79,7.16,1.02,14.88.4,22.1,1.16,6.94.54,13.11,1.53,19.67,2.95,8.72,1.8,18.56,4.83,26.84,7.22,6.78,1.42-2.44-4-4.64-5.06-4.51-2.41-9.52-4.54-14.42-6.18-9.39-3.2-18.12-5.4-27.65-7.49-9.06-1.67-19.13-4.38-23.84-13.02-2.05-3.52-3.25-7.76-4.15-11.8-2.76-13.24-5.44-25.97-7.37-39.31-.28-1.99-2.65-17.72-4.73-13.86l-.02.05Z"/>
  <path class="st0" d="M403.4,316.31c-1.13,1.74-2.12,6.07-2.87,8.59-1.69,6.3-3.15,12.35-4.6,18.99-2.81,12.65-5.83,25.66-8.18,38.36-1.3,6.63-2.39,13.32-4.21,19.94-1.94,7.15-5.47,12.73-13.17,14.32-7.17,1.56-14.97,1.17-22.28,2.1-9.14.95-18.53,2.61-27.3,4.81-9.73,2.42-19.51,5.63-27.84,11.32-2.18,1.5-4.11,3.1-5.44,4.46-1.74,1.78-2.52,3.13-2.18,3.73.35.65,1.9.52,4.43-.33,3.93-1.34,8.62-3.55,12.72-5.04,11.05-4.24,21.7-6.12,33.97-6.96,10.66-.86,21.61-.6,32-.06,6.42.14,14.75,1.38,19.63-3.43,3.9-3.97,4.45-11.81,5.06-17.53.67-7,1.41-15.28,2.11-21.82,2.09-18.2,4.6-36.29,7.13-54.57.24-2.46,2.8-18,1.02-16.91l-.02.03Z"/>
  <path class="st0" d="M292.81,308.41c-3.06-2.36-10.22,4.86-12.83,6.83-3.45,2.93-6.8,5.78-10.65,8.67-4.8,3.62-10.23,7.17-15.55,10.06-4.46,2.51-18.4,9.18-6.46,11.82,8.53,1.63,18.03-.19,25.29-5.19,8.18-5.45,14.87-14.01,18.93-23.05,1.19-2.81,2.94-7.05,1.31-9.1l-.04-.04Z"/>
</svg>