<?xml version="1.0" encoding="UTF-8"?>
<svg id="Layer_1" xmlns="http://www.w3.org/2000/svg" version="1.1" viewBox="0 0 6393.78 3704.33">
  <!-- Generator: Adobe Illustrator 29.5.1, SVG Export Plug-In . SVG Version: 2.1.0 Build 141)  -->
  <defs>
    <style>
      .st0 {
        fill: #9f2e57;
        stroke: #9f2e57;
        stroke-miterlimit: 10;
      }
    </style>
  </defs>
  <path class="st0" d="M2.64,2268.49c30.24-180.29,241.4-258.72,287.4-319.64,202.11-267.64,420.6-681.01,635.73-960.01,149.26-193.57,376.03-517.19,528.07-684.3,181.91-199.94,724.43-123.08,950.93,1.68,75.37,41.51,150.33,117.39,239.8,128.95,194.38,25.11,700.93-2.84,895.33-27.95,89.1-11.51,58.36-64.95,111.93-100.69,293.12-195.54,677.89-59.29,969.19-259.23,44.81-30.76,97.9-47.31,152.3-47.31h670.43c368.79,42.31,199.19,241.75,293.95,394.15,26.36,42.39,157.09,153.05,158.15,257.52.09,9.3.57,76.97,81.16,182.42,13.38,17.51,133.84,145.55,163.21,189.18,171.65,254.92,216.01,1123.39-1.22,1380.37-77.83,92.07-261.88,132.06-321.81,184.67-780.89,685.35-751.23,534.14-1766.25,643.8-247.31,26.72-399,189.8-422.72,195.07-645.95,143.57-1395.09,101.65-2034.01,251.63-442.63,103.9-453.7-128.39-715.04-352.06-187.65-160.61-384.34-366.03-577.11-523.27C126.5,2660.27,16.44,2760.34,0,2448.74l2.64-180.25Z"/>
</svg>