<?xml version="1.0" encoding="UTF-8"?>
<svg id="Layer_1" xmlns="http://www.w3.org/2000/svg" version="1.1" viewBox="0 0 6393.78 3704.33">
  <!-- Generator: Adobe Illustrator 29.5.1, SVG Export Plug-In . SVG Version: 2.1.0 Build 141)  -->
  <defs>
    <style>
      .st0 {
        fill: #9f2e57;
      }
    </style>
  </defs>
  <path class="st0" d="M5437.87,100c46.77,5.68,84.06,14.32,110.9,25.71,17.15,7.28,29.28,15.35,36.05,24,3.41,4.36,7.75,11.44,11.01,27.6,3.54,17.56,4.61,39.93,5.74,63.61,2.85,59.68,6.4,133.95,51.21,206.03,11.37,18.29,27.47,36.38,47.84,59.28,21.86,24.58,49.07,55.16,69.1,85.64,23.4,35.6,26.08,54.39,26.14,60.81v.07c.42,41.25,14.18,127.54,101.7,242.06,6.35,8.31,16.51,19.67,46.26,52.65,31.72,35.15,97.72,108.3,113.46,131.66,33.54,49.81,64.71,139.08,87.76,251.35,11.75,57.22,21.19,119.24,28.06,184.32,6.92,65.53,11.08,132.75,12.36,199.81,2.68,139.88-7.22,271.85-28.64,381.65-11.03,56.53-24.96,106.36-41.4,148.1-15.81,40.12-33.57,72-52.79,94.74-31.28,37-106.6,69.54-167.12,95.68-58.1,25.1-108.27,46.77-144.29,78.38-167.34,146.86-285.45,244.58-382.97,316.85-100.62,74.56-184.3,125.47-263.35,160.22-73.47,32.29-148.36,53.22-242.85,67.86-92.99,14.41-200.53,22.29-336.68,32.25-128.68,9.42-288.83,21.14-485.17,42.35-220.94,23.87-373.87,141.73-439.18,192.06-3.55,2.73-7.52,5.79-10.99,8.43-134.68,29.17-286.75,52.88-464.17,72.4-166.22,18.29-339.14,31.31-506.38,43.9-174.92,13.17-355.79,26.79-530.94,46.53-198.29,22.34-367.46,50.29-517.18,85.44-64.71,15.19-121.26,22.89-168.08,22.89-33.67,0-62.7-3.8-88.76-11.6-22.44-6.72-43.2-16.68-63.48-30.44-43.51-29.53-83.42-75.64-129.63-129.04-48.19-55.69-102.81-118.8-177.22-182.48-82.48-70.59-165.62-148.97-253.64-231.96-106.36-100.27-216.34-203.96-325.29-292.82-68.14-55.58-129.17-81.05-173.73-99.64-18.87-7.87-35.16-14.67-46.53-21.5-8.67-5.2-12.55-9.24-15.71-13.71-10.55-14.9-24.13-52.06-29.27-144.38l2.47-168.28c3.4-16.04,9.29-31.39,17.94-46.71,9.4-16.67,21.79-32.91,37.88-49.66,33.21-34.58,75.26-63.74,112.36-89.46,40.65-28.19,75.76-52.53,99.17-83.54,99.88-132.26,199.87-293.07,305.73-463.32,108.52-174.52,220.74-354.99,329.39-495.89,47.38-61.45,101.94-135.11,159.7-213.1,122.88-165.92,262.16-353.97,363.15-464.97,12.22-13.44,28.17-25.7,47.4-36.44,20.49-11.45,44.86-21.28,72.42-29.22,55.94-16.12,123.32-24.29,200.26-24.29h0c91.21,0,190.05,11.6,285.83,33.53,88.84,20.35,167.97,48.19,222.81,78.39,19.33,10.65,40.66,25.51,63.25,41.25,28.23,19.67,57.42,40.01,90.13,57.7,42.26,22.85,82.11,36.45,121.85,41.58,54.78,7.08,133.17,10.67,232.98,10.67,108.57,0,242.58-4.35,377.34-12.26,124.12-7.28,237.34-16.89,310.64-26.35,108.16-13.97,138.41-78.97,152.95-110.21,1.17-2.52,2.66-5.72,3.75-7.85,124.04-81.78,274.31-95.43,433.35-109.87,86.93-7.89,176.81-16.06,265.33-35.85,104.86-23.45,193.02-60.37,269.51-112.87,28.36-19.46,61.45-29.75,95.71-29.75h664.55M5443.75,0h-670.43c-54.4,0-107.49,16.55-152.3,47.31-291.3,199.94-676.07,63.69-969.19,259.23-53.57,35.74-22.82,89.18-111.93,100.69-140.54,18.15-444.23,37.79-675.17,37.79-88.49,0-166.31-2.88-220.17-9.84-89.47-11.56-164.43-87.43-239.8-128.95-126.41-69.63-351.24-124.34-556.9-124.34-162.83,0-313.65,34.3-394.04,122.66-152.04,167.11-378.81,490.73-528.07,684.3-215.13,278.99-433.63,692.36-635.73,960-46,60.92-257.15,139.35-287.4,319.64L0,2448.74c16.45,311.6,126.5,211.53,302.07,354.73,192.77,157.23,389.46,362.66,577.11,523.27,217.12,185.83,261.47,377.59,524.11,377.59,53.48,0,116.04-7.96,190.93-25.54,638.91-149.97,1388.06-108.06,2034.01-251.63,23.72-5.27,175.41-168.35,422.72-195.07,1015.01-109.65,985.36,41.55,1766.25-643.8,59.93-52.6,243.98-92.59,321.81-184.67,217.23-256.98,172.87-1125.45,1.22-1380.37-29.38-43.63-149.83-171.67-163.21-189.18-80.58-105.44-81.06-173.11-81.16-182.42-1.06-104.47-131.79-215.13-158.15-257.52C5642.95,241.75,5812.54,42.31,5443.75,0h0Z"/>
</svg>