<?xml version="1.0" encoding="UTF-8"?>
<svg id="Layer_1" xmlns="http://www.w3.org/2000/svg" version="1.1" viewBox="0 0 2302.76 1082.64">
  <!-- Generator: Adobe Illustrator 29.5.1, SVG Export Plug-In . SVG Version: 2.1.0 Build 141)  -->
  <defs>
    <style>
      .st0 {
        fill: #e68e35;
      }

      .st1, .st2 {
        isolation: isolate;
      }

      .st1, .st3 {
        display: none;
      }

      .st4 {
        fill: #e68e36;
      }

      .st5 {
        fill: #e68d35;
      }
    </style>
  </defs>
  <g>
    <path class="st5" d="M0,492.17c0-1.27.82-2.41,2.03-2.81,51.95-16.83,107.26-9.07,161.05-10.45,10.5-.27,27.06-7.32,33.34-5.54,19.63,5.56,4.8,57.62-1.06,71.88-8.8,21.42-36.11,37.68-23.22,60.66,22.77,40.57,50.38,19.96,82.13,20.35,25.02.3,53.58,14.84,76.81-2.63,32.75-24.63-10.56-56.72-15.51-80.76-1.88-9.12-3.86-67.53-1.34-69.96,2.14-2.06,56.41-6.23,59.23-5.28,3.54,1.19,31.73,51.49,40.74,62.35,11.03,13.29,69.99,68.07,83.18,76.6,25.51,16.5,122.94,43.28,139.87,8.82,14.32-29.14-16.31-29.46-28.71-39.9-45.36-38.19-77.5-90.61-118.98-132.81-1.64-1.67-.75-4.49,1.55-4.94l132.79-25.76c1.24-.24,2.5.33,3.12,1.42,16.87,29.8,20.21,64.97,37.68,94.82,9.69,16.56,84.26,92.02,99.67,99.9,135.65,69.32,301.28,8.1,375.83-117.96,4.09-6.91,7.09-22.93,8.31-22.93h82.71c1.65,0,2.96,1.35,2.94,3-.47,32.82,5.1,66.21-12.21,95.89-12.37,21.21-47.11,36.94-10.45,63.4,25.89,18.69,48.13,3.35,71.25,4.14,26.1.9,68.14,19.15,88.11-10.5,17.46-25.93-22.36-55.86-22.36-61.9v-90.69c0-1.72,1.45-3.05,3.16-2.93,14.19,1,48.3-3.71,53.15.5,3.41,2.96,30.16,63.94,43.47,79.1,28.98,33.01,99.97,85.66,143.78,90.25,29.86,3.12,93.67,10.47,73.46-33.4-2.11-4.58-62.35-55.58-74.25-68.37-17.36-18.66-35.73-42.44-50.92-63.81-1.39-1.95.01-4.65,2.4-4.65h271.36c1.63,0,2.94,1.32,2.94,2.94v79.68c0,22.26-68.86,51.97-29.41,84.82.53.44,1.2.67,1.88.67h169.25c.74,0,1.47-.28,2.01-.79,37.7-35.37-19.07-55.32-23.61-79.13-5.04-26.43,2.77-58.64,5.35-85.52.15-1.52,1.41-2.68,2.93-2.68h331.58c1.48,0,5.99,4.66,10.58,5.76,2.21.53,3.71,2.59,3.71,4.86v267.36c0,4.02-2.85,7.47-6.8,8.22l-24.08,4.62c-.19.04-.38.05-.57.05-632.1-3.97-1265.65,6.99-1896.81-6.21-105.94-2.22-220.92,3.4-325.94-5.43-12.7-1.07-24.14-5.43-35.43-10.63-1.02-.49-1.69-1.54-1.69-2.69v-241h0Z"/>
    <path class="st5" d="M2256.76,0c5.51,0,11.01,1.08,15.94,3.53,6.97,3.47,17.78,2.06,21.89,7.48,13.83,18.26-6.08,215.35-3.23,258.93.03.52-.07,1.03-.3,1.5l-4.64,9.36c-.43.86-1.24,1.46-2.19,1.61-86.75,13.57-177.94,12.83-266.43,13.76-2.51.03-3.89-2.89-2.28-4.82,24.9-29.74,45.39-64.17,75.75-89.14,21.77-17.91,91.26-46.39,84.71-79.03-1.2-5.99-25.98-24.28-31.39-25.18-6.52-1.09-20.63,9.19-33.15,10.5-34.9,3.66-77.32-23.87-105.46-2.77-29.86,22.4,18.64,43.22,8.29,70.5-3.22,8.48-71.62,87.18-79.75,91.86-15.04,8.65-31.32,8.64-46.36,0-8.29-4.77-75.6-77.33-79.63-85.88-11.96-25.39,14.47-43.17,11.47-63.38-5.75-38.78-107.07-15.99-131.51-15.81-26.44.2-117.07-25.68-116.97,25.16.04,22.28,49.98,41.12,67.8,57.58,29.62,27.35,61.02,72.12,87.74,105.21,1.61,1.99.09,4.93-2.46,4.78-44.81-2.68-89.25,3.36-133.28,6.31-11.85.79-7.4-.05-8.59-8.44-2.21-15.69,1.94-32.81-1.32-50.11-7.24-38.46-62.34-113.29-98.24-129.96-62.92-29.21-115.42-9.74-177.8-10.73-32.59-.52-65.47-18.2-95.31,5.36-34.6,27.32,9.55,50.96,17.95,83.18,14.68,56.36,1.7,121.31.81,178.76-.02,1.32-.91,2.46-2.19,2.8l-50.34,13.26c-2.03.54-3.99-1.16-3.69-3.24,2.93-20.3-9.73-78.13-6.96-80.92,2.14-2.15,13.72,1.35,21.46.65,3.8-.34,3.3-6.08-.5-5.86-37.65,2.13-19.92-1.48-28.19-24.48-22.42-62.36-123.55-153.33-186.03-173.63-129.83-42.18-239.26,16.83-312.07,123.87-8.76,12.88-27.93,64.7-35.41,67.26-16.88,5.77-51.15-1.8-72.53.28-1.92.19-3.47-1.5-3.16-3.4,12.57-77.28-63.15-186.32-140.53-195.7-41.41-5.02-157.15-6.55-199.39-3.7-21.19,1.43-45.07,16.76-43.54,40.49,1.36,21.06,23.66,28.85,27.36,41.42,3.98,13.51-.89,29.9,1.57,44.02,4.27,24.56,16.59,46.71,11.59,74.53-.29,1.59-1.78,2.65-3.37,2.4-66.53-10.43-138.88,3.82-201.1-21.61-1.08-.44-1.8-1.53-1.8-2.72V18.49c0-.88.4-1.72,1.08-2.28l9.52-7.76c.49-.4,1.1-.63,1.73-.66C75.56,4.83,138.12,2.23,199.99,0h2056.77Z"/>
    <path class="st5" d="M794.25,467.24c-8.25-12.64-45.23-70.18-29.24-82.4.33-.25.73-.41,1.14-.49l262.19-53.34c1.6-.33,3.18.71,3.47,2.32,5.07,27.35,18.8,51.66,13.91,80.32-.21,1.2-1.11,2.17-2.3,2.42l-242.24,50.91c-.74.16-1.37.6-1.82,1.21-1.56,2.13-3.27,1.76-5.11-.96h0Z"/>
    <path class="st0" d="M986.57,241.25c11.57,13.71,17.48,34.46,27.41,50.37,1.24,1.99-.21,4.55-2.55,4.5l-254.22-5.48c-1.68-.04-2.99-1.47-2.88-3.15,2.16-32.95,42.71-99.54,71.47-105.02,25.32-4.83,72.95,1.18,97.22,11.06,13.93,5.67,54.28,36.75,63.54,47.73h.01Z"/>
    <path class="st0" d="M799.97,467.24l224.73.03c1.94,0,3.34,1.84,2.84,3.72-38.49,144.2-162.88,99.67-230.22.86-1.33-1.96.07-4.61,2.44-4.61h.21Z"/>
    <path class="st4" d="M1352.61,351.13c-1.93.85-4.09-.6-4.09-2.71v-146.13c0-36.54,68.99-26.67,90.46,6.66,14.63,22.71,19.87,111.31,1.15,124.58-12.28,8.71-65.49,7.93-87.52,17.6h0Z"/>
    <path class="st4" d="M414.07,290.6h-96.85c-1.63,0-2.94-1.32-2.94-2.94v-91.07c0-31.46,56.3-32.44,80.24-11.64,32.38,28.14,21.35,64.69,22.49,102.6.05,1.67-1.27,3.06-2.94,3.06h0Z"/>
  </g>
  <g class="st3">
    <path class="st0" d="M1838.46,816.34c22,20.66,3.94,86.69,1.52,115.36-3.09,36.53,12.62,114.86-43.05,117.13-53.51,2.17-83.03-90.11-129.29-112.31-2.05-.98-4.38.65-4.19,2.91,2.94,35.84-12.65,146.73-61.2,109.51-23.89-18.32-8.13-60.88-7.8-82.87.44-29.3-8.14-114.3,11.38-131.08,44.53-38.28,122.62,67.01,160.8,96.2,1.92,1.47,4.7.09,4.71-2.33.2-33.3.09-109.61,32.71-118.77,9.69-2.72,27.1-.61,34.42,6.26h-.01Z"/>
    <path class="st0" d="M1342.85,946c-2.38,2.87-1.3,7.88,3.5,11.64,27.78,21.76,80.66,35.96,70.81,87.9-12.31,64.92-110.74-42.82-134.69-48.11-12.53-2.76-6.32,8.73-13.67,19.79-12.59,18.95-40.15,20.09-52.05.23-5.24-8.75-10.13-59.93-11.03-74.48-1.58-25.41-4.5-110.33,1.14-129.8,11.1-38.32,114.82-31.49,143.64-14.58,55.38,32.49,41.63,94.03,8.63,138.18-5.98,7.99-15.69,8.51-16.28,9.23h0Z"/>
    <path class="st0" d="M618.56,1041.28c-8.04-7.6-16.64-41.8-22.85-57.61-.71-1.81-2.95-2.43-4.5-1.26-27.93,21.16-57.05,27.68-91.91,31.2-8.06.81-17.44-6.25-25.04-2.55-9.88,4.81-25.98,42.4-44.07,47.79-24.77,7.39-45.32-14.8-39.24-38.87,6.4-25.34,50.45-92.79,65.37-123.34,25.9-53.03,28.58-113.15,111.3-69.48,39.92,21.07,112.26,147.81,111.79,190.08-.34,30.2-41.8,42.05-60.85,24.04h0Z"/>
    <path class="st0" d="M2071.97,890.4c-1.65,1.72-.73,4.58,1.62,4.97,41.22,6.78,89.41,17.57,110.31,57.93,48.18,93.06-65.16,130.67-138.26,109.34-26.9-7.85-84-30.14-61.77-67.1,22.95-38.15,75.8,4.14,110.49,2.05,24.62-1.48,39.83-10.37,9.93-21.68-44.11-16.7-110.23-20.19-114.41-79.87-5-71.37,99.14-96.98,154.43-85.62,26.19,5.38,75.12,39.02,34.31,60.11-33.72,17.43-80.7-7.28-106.66,19.86h0Z"/>
    <path class="st0" d="M285.73,980.05c2.28,2.29-.03,27.47-2.99,34.11-12.56,28.12-73.29,51.23-102.77,51.82-167.79,3.38-121.63-268.68,28.74-251.27,24.71,2.86,47.54,18.99,34.2,45.74-8.65,17.35-41.19,9.22-60.23,14.03-55.57,14.04-78.56,133.34-8.5,134.64,26.21.49,96.76-43.9,111.56-29.07h-.01Z"/>
    <path class="st0" d="M895.52,809.96c12.3-3.37,28.61,3.24,35.31,13.97,14.55,23.31,16.14,156.34,10.63,186.12-11.62,62.78-71.85,66.06-78.87-9.81-3.27-35.31-.39-125.18,6.06-159.66,1.74-9.31,17.84-28.15,26.87-30.62h0Z"/>
  </g>
  <g class="st2">
    <g class="st2">
      <path class="st5" d="M219.12,850.61l-22.2-7.2h-24.6l-21.3,6.3-17.7,14.4-11.1,20.1-1.8,28.5,7.2,23.7,13.8,17.7,21.6,8.4,27.6,1.5,30.9-9,22.8-9.6,15,4.8,2.7,15.3-32.4,19.2-43.8,10.8-35.1-.9-41.7-8.7-30.6-21-15.3-34.2-2.1-42,24-41.4,38.7-23.4,42.3-9.6,38.1,1.2,29.1,6,1.2-17.7,11.4-4.8,9.6,4.8-1.8,43.2,1.8,43.2-9.6,4.5-11.4-4.5-3.3-33-12-6.6Z"/>
      <path class="st5" d="M481.01,994.01l-25.2,4.2-13.2-18.9,88.5-130.5-15.9-21v-9.3l6.3-4.5,48.3-3,14.7,9.9,66.9,120.3,23.4,27.6,29.7,3.3,4.8,9.3-4.8,9.6-107.4,3-4.2-35.7-36.3-3.9-56.1,4.8-19.5,34.8ZM550.61,871.31l-30,52.8,36,3.3,24.3-2.7-30.3-53.4Z"/>
      <path class="st5" d="M920.21,836.81l-27.3-3.3-4.5-9.3,4.5-9.6,59.1,4.2,58.8-4.2,4.8,9.6-4.8,9.3-27.3,3.3-6.3,67.5,6.3,67.2,27.3,3.3,4.8,9.3-4.8,9.6-58.8-2.1-59.1,2.1-4.5-9.6,4.5-9.3,27.3-3.3,6.3-67.2-6.3-67.5Z"/>
      <path class="st5" d="M1410.71,946.31l20.1-12.6,12.6,4.2,4.5,15-62.1,44.1-12.6-7.2-60-75-6.3-.6-9.6-1.8,5.7,59.1,27.3,3.3,4.8,9.3-4.8,9.6-58.8-2.1-59.1,2.1-4.5-9.6,4.5-9.3,27.3-3.3,6.3-67.2-6.3-67.5-27.3-3.3-4.5-9.3,4.5-9.6,59.1,2.1,39.9-2.1h32.7l33.3,2.7,29.1,12.3,11.4,16.2,1.2,26.1-14.4,22.5-21.6,10.5-16.5,4.5,44.1,36.9ZM1297.01,887.21l11.7,3.3,12.3.9,15.6-1.5,13.5-5.7,10.2-9.9,2.4-11.7-6.3-11.4-9.3-6.3-12.6-3.3-18.9-.3-12.6,3-6,42.9Z"/>
      <path class="st5" d="M1868.51,833.51l-29.4,3.3-6.3,67.5,6.3,81.9-20.4,12-20.7-12-59.7-64.5-41.1-28.8-.6,11.4,6.3,67.2,29.4,3.3,4.8,9.3-4.8,9.6-49.5-2.1-47.4,2.1-4.5-9.6,4.5-9.3,27.3-3.3,6.3-67.2-5.4-63.3-28.2-3.6-4.5-9.3,4.5-9.6,64.2-2.7,16.5,11.4,42.6,47.4,46.5,37.5.3-7.8-6.6-67.5-27.3-3.3-4.5-9.3,4.5-9.6,47.4,2.1,49.5-2.1,4.8,9.6-4.8,9.3Z"/>
      <path class="st5" d="M2174.21,845.21l-23.1-2.4-16.2,4.8-6.9,10.8,3.6,11.4,16.2,6.3,30.3,7.8,33.6,14.7,16.5,21.3,4.2,27-15.6,31.5-30.3,15-50.1,1.8-26.1-6.6-13.8-9-4.8,24.9-9.6,4.5-9.3-4.5,1.8-43.2-1.8-39,9.3-4.8,9.6,4.8,2.7,17.4,13.8,13.2,18.9,8.1,18,3.9h19.5l10.8-6.6,2.7-12.6-8.4-9.3-15.9-3.9-21.6-7.5-27.6-10.2-25.8-19.2-7.5-28.2,10.5-27.6,27.3-20.7,47.1-4.5,31.2,3.6,11.4,6.3,5.1-18,9.6-4.8,9.3,4.8-1.8,39,1.8,34.8-9.3,4.5-9.6-4.5-4.5-19.5-8.4-7.5-16.8-8.1Z"/>
    </g>
  </g>
  <g class="st1">
    <g class="st2">
      <path class="st5" d="M227.24,1015.11l-5.7.3-6.9-.3-5.7-1.2-14.1-2.4-3.9-1.5-9.6-3.3-3-1.5-3.3-1.8-3-1.5-1.8-1.5-4.2-2.1-3.6-2.7-3.6-2.1-3.3-3.3-1.5-1.2-3.3-3-3.3-3.6-4.2-4.5-3.6-4.8-2.1-2.4-2.4-3-2.1-3.3-3-5.1-2.7-5.4-1.8-3.9-2.1-5.1-2.7-5.4-.9-3.9-1.5-4.2-.3-3.9-.9-3-.3-5.1-.9-4.5-.3-6.9-.3-5.1v-9l1.5-5.4.6-3.3,1.8-7.2,2.4-9.3,3-6.9,1.8-4.8,1.8-3.6,2.7-4.5.9-2.4.6-.9,2.4-3.3,4.2-5.4,4.5-5.7,4.2-4.8,3.9-3.9,6-4.8,7.5-5.1,6-4.2,9-4.8,5.1-2.1,4.5-1.5,4.8-1.5,3.9-.9,8.4-2.1,4.8-.9,2.7-.3,6-.3,6.3-.6h6.6l6.6.9,2.4.6,6,.6,6.3,1.8,8.7,2.7,8.1,3,2.1,1.2,5.4,3,6.9,3.3,6.3,4.8,5.7,4.2,4.2,3.3,4.8,4.5,4.2,5.1,3.6,5.4,1.5,3.9-.3,4.8-2.7,4.8-3,3.9-4.8,4.8-3.9,2.1-5.1.6-4.5-.9-3.6-2.7-4.8-4.8-4.8-4.2-3.6-4.2-4.8-3.6-3.3-2.4-5.4-2.7-5.1-2.7-5.1-1.2-7.5-2.1-5.4-1.2h-6.6l-7.2-.9-7.8,1.2-5.4.9-5.7,1.5-5.7,1.8-6.3,3-7.5,4.2-3.9,2.4-3,2.7-4.5,3.9-3.6,3.6-3.3,4.2-4.8,6.3-4.5,9.6-3.9,9.9-.9,4.8-.6,4.2-.6,6.3v6.9l1.2,7.5.9,7.8,1.5,5.1.9,5.1,1.8,5.1,1.8,2.4,1.5,3.3,1.2,3.3.6,1.2,2.4,2.7,3.6,5.4,3,3.6,2.7,2.7,4.2,3.3,4.8,4.2,3.6,2.1,6.3,3.3,6,3,4.2,1.2,5.7,1.2,8.7,1.5,5.4.3,10.2-.6,8.4-1.2,6.6-1.5,6.3-2.1,4.5-1.8,4.8-2.7,6-4.2,5.4-4.2,8.7-8.7,3-3.3,4.5-2.1,5.7-.6,9,3.3,7.5,8.1,1.8,4.8-.3,3.6-1.5,5.1-3.3,5.4-3.6,3.6-5.1,5.4-14.4,9.9-5.1,2.7-2.4,1.8-16.5,7.5-3.9.9-4.5.9-3.9,1.2-4.2,1.2-8.7.6-6.3.9-6-.6Z"/>
      <path class="st5" d="M532.94,1012.41l-3.9-.9-5.4-2.7-4.2-3.3-3-3.6-1.2-3.6v-5.4l2.7-5.4,1.8-4.5,1.5-3.3,1.8-3.6,2.7-6.3,1.8-4.8,5.7-11.4,3-6.6,2.7-6.9,4.8-9.3,3-6.9,2.1-4.2,2.1-4.5,2.4-5.1,4.2-10.8,3.6-6.3,2.4-6.6,4.2-9,4.8-11.1,2.7-6,4.5-11.4,3.3-6.9,1.5-4.5,2.7-5.1,2.1-4.2.6-2.4,1.2-3,1.5-4.2,2.1-3,1.8-3.6,1.8-3.3,1.2-2.4,2.1-3.6,3.6-3,7.5-1.5h8.1l3.9.9,3.3,3,2.1,3.9,1.8,3.6,3,6.9,3,6.6,5.7,11.1,1.8,4.8,2.1,3.9,1.8,5.4,2.4,5.4,1.5,4.2,2.1,4.2,3.3,7.5,3.3,6.6,2.1,5.4,2.1,3.6,1.2,3.3,2.1,4.5,2.7,4.8,1.8,4.8,1.8,5.1,1.8,3,1.5,3.9,3,5.4,2.4,6,3.9,9.3,5.4,10.2,3,7.2,2.1,4.5,1.2,2.7,1.2,3.9,3.6,7.2,2.7,5.7,1.5,2.4,2.7,5.7,2.1,6.3,1.5,5.1-1.2,6.6-3.3,3.9-6,3-10.5,2.7-6.9-1.5-2.7-2.4-3-3-.9-3.9-2.7-5.7-3.3-6.9-1.8-3.3-2.7-6-3.3-6.9-1.2-2.7-2.1-3.6-2.7-4.8-2.1-3.9-3-2.1-6-.6-7.5.3h-35.1l-9.9-.3-7.8.6-4.2-.3-5.1.6-4.8.3-3.9,2.1-1.8,2.7-6,12-3,5.4-.9,3.3-1.5,3-1.8,4.2-2.4,5.1-1.5,4.5-3,4.8-3.6,5.4-3.3,2.7-4.8,1.2-5.1-.3ZM639.44,921.21l.3-.3.9-.3,1.2-2.7-.9-5.4-1.8-4.5-6.6-11.7-3-5.7-3.9-9.6-2.4-5.7-2.1-5.4-3.3-7.8-3.6-3-2.4,4.8-2.4,7.5-5.1,11.4-3.9,8.1-2.7,7.5-2.4,5.4-3,6-.3,2.4-.6,2.7v3l2.1,2.1,5.1.3h5.4l8.4.6,20.1.6,6.9-.3Z"/>
      <path class="st5" d="M942.73,1008.51l-5.7-1.5-4.2-4.2-1.2-4.2.3-6.9v-12l.3-7.2-.6-4.8.3-6.9-.6-7.5.3-3.9.3-3.3-.9-5.1v-9.3l.6-7.2-.6-6,.9-5.4-.3-3.6v-5.4l-.9-5.4.3-3.6v-4.8l-.9-8.4-.3-5.1.9-9v-8.7l.3-8.1-.3-6v-28.8l-.3-6,1.2-4.8,1.5-2.7,1.8-1.8,3.9-2.7,5.7-.6h5.4l6.3.3,4.8,1.5,2.4,2.7,2.4,3.9.3,5.4.3,7.5v5.1l-.3,3.3.6,5.1-.3,7.5v7.2l.6,5.1-.3,7.5-.3,9.3v6l.3,4.2v7.5l.3,6.6-.3,8.1.3,14.1-.6,8.4v3.9l.3,2.7v16.8l.3,4.8v15.6l.6,3.3v14.1l-.3,6.9-1.5,8.4-1.5,3.3-1.5,1.8-2.1.9-5.4,2.1h-6.3l-2.4.3-3.9-.3Z"/>
      <path class="st5" d="M1351.63,1011.21l-3-1.5-2.4-2.1-3.3-3.6-3.6-5.1-2.4-3-2.4-3.3-2.4-3.6-2.7-3.9-1.8-3-2.4-3-3.3-4.8-4.8-5.4-3.3-4.2-2.7-3.9-3.9-4.8-4.5-5.4-3.6-5.1-4.8-5.7-3-4.2-1.8-2.4-2.1-1.5-3-2.1-3-1.5-3.3-.6-3.9-.6-2.7.3-18.6-.6-7.2.6-6,2.1-1.5,4.8-.6,8.1-.6,6.9-.3,3.6-.3,7.8v6l.3,8.4-.3,2.4v5.7l-.3,5.1v6.3l-.6,4.2-.6,4.8-1.5,3-1.5,1.8-1.8.9-3,.9h-3.6l-5.4.6-6.6-.6-3.3-.6-3-1.2-2.7-4.8-1.5-4.2v-7.2l-.3-7.2-.3-3,.9-11.7v-7.2l-.3-6-.6-4.8v-20.4l.3-5.7.3-3.6-.3-2.4v-13.8l.3-5.7v-11.7l-.3-6.3v-4.2l.6-3-.6-3.6v-6l-.3-2.1.3-1.8.3-3v-5.4l-.3-1.2.6-4.5v-14.4l-.6-3,.6-3-.9-5.7v-5.4l.3-6,1.2-5.1,1.8-2.7,1.8-1.5,3.3-1.8,8.7-1.2,13.2.6,10.5-.3,6.9-.3h4.8l3.3.3,5.1-.3,6.9-.3,15.3.3h3.9l5.7-.3h13.8l6.9.3,16.2,1.5,3.6.9,5.4,1.8,6.9,3,7.5,4.5,4.2,4.2,2.4,2.7,4.5,4.8,2.7,5.1,1.5,4.8,2.1,5.1,1.5,4.2,1.2,2.4.6,2.7.6,2.4-.3,3.6.3,3.9.3,7.2.3,9.3-.3,4.5-.6,2.4-.9,3.3-1.2,3.3-2.1,6-3,6.9-1.8,2.7-1.8,3-3.3,3.6-3,2.7-3,3.3-5.1,3.3-3.6,1.8-5.1,3.6-6.3,2.7-1.8,1.8.3,1.5.3,1.2,1.8,3,3.3,5.4,4.2,5.1,3,3.6,1.5,2.7,2.4,2.7,9,12.9,3.3,4.2,3.6,4.8,3,3.6,2.4,3.9,3.3,4.2,2.1,5.4-.6,2.1-1.2,3.9-3.6,6-4.2,2.7-5.1,3.6-6.6,2.7-3-.9ZM1311.13,893.01l2.7-.3,3.3-.3,2.4-.3,3,.3,2.7-1.2,2.1-.9,2.7-.9,1.8-1.5,2.1-2.1,1.8-2.4,2.4-6.3,1.2-6.3.6-2.7.3-4.5.6-3.6-.6-4.5-1.5-5.4-1.5-4.8-3.6-5.7-5.1-3.3-4.2-1.2-5.7-1.8-5.7-.3-4.5-.3-2.7-.3h-2.7l-3.3-.3-3.6.6h-20.1l-4.2-.3h-4.8l-5.4.3-4.5-.9h-9.3l-7.2.9-1.8.6-.9,2.1-.3,3.9-.3,7.8v9.6l-.3,6.9.3,9.6-.3,9,.9,5.4,4.5,2.7,3.9.9,3.9.3,5.4-.6,3.3.6,6.6.3h6.3l1.8.3,6.6-.3h8.1l12.6,1.2h10.2Z"/>
      <path class="st5" d="M1763.23,1008.81l-9.6.3-6.3-1.2-3.9-2.7-4.2-5.4-5.1-6.9-12-17.1-5.7-7.5-3-4.2-6.6-9.9-7.2-10.2-5.4-6.9-4.5-5.1-3-4.5-2.7-2.7-6.3-9-3.9-4.8-2.7-2.7-2.1-3.9-3.6-3.9-6.9-9.3-5.7-8.4-3.6-4.8-3.9-4.2-2.4-3.3-1.8-1.8-3-1.2-2.7,1.5-.3,5.7.3,6.9v6l-.3,6.3.6,9.3v12.3l.3,12.3.3,7.5.9,5.7-.3,9.3v12.6l-.6,8.4v4.5l-.3,6.3.3,4.8-.3,3.9v5.4l-.6,4.8-2.1,3.9-3,2.1-2.7.9-4.8.9h-3.9l-2.1.3-6.3-.3-6.3-4.2-2.4-4.5-.9-4.8.3-5.4.6-5.7-.3-5.7v-3.9l-.3-5.4v-5.7l.6-4.2-.3-7.8-.6-5.7-.9-5.7.3-9v-5.1l-.3-5.1.3-5.4v-3.3l.6-8.4v-9l-.6-4.5v-2.7l.6-4.8-.6-5.4v-2.1l.6-5.4-.3-7.5.3-6.6-.6-5.1.3-3-.3-3.9-.3-6-.3-5.4v-8.1l.3-5.7.3-3.6v-3l.6-4.8.6-3.9,1.5-1.2,5.4-3,4.5-.3,5.7-.3,6.6.6,6.3,1.2,3.9,2.7,4.8,6,3,4.5,5.1,7.2,4.2,6.6,3.9,4.8,3.9,6,4.2,5.4,1.8,2.4,3,5.4,3.3,4.2,5.1,5.7,3.9,5.4,3.3,3.6,6,7.2,7.2,9.6,4.5,7.2,7.2,9.6,3,3.3,2.4,3.6,3.9,5.7,5.4,6.3,5.4,8.4,3,3.6,2.1,2.7,3,2.4h3.3l.9-1.5.6-6.6.3-6.3v-30l.6-8.4v-5.4l-.3-5.7v-5.4l.6-4.2v-20.1l-.6-3,.3-4.8-.3-6v-4.8l-.3-4.5v-8.4l.3-5.7,1.5-5.4,2.4-1.8,3.3-1.8,2.7-.6,3.9-.3,3.3-.9h8.7l3.6,1.8,2.7,3,2.1,4.8.6,7.8-.6,6.9-.3,3.3.6,5.7-.3,4.5.3,4.2-.3,4.5.3,3v11.7l.3,8.7v15.6l.9,4.5v2.7l-.6,3.9.6,6.3-.3,3.3.3,2.7-.9,3.3v35.4l-.3,8.4.3,4.5v33.9l.9,5.1-.6,7.2-3.3,3-2.4.9-3,.6-6.6-.6Z"/>
      <path class="st5" d="M2083.03,1013.01l-3.9-.6-5.1-.9-8.1-1.2-9-3-6-2.1-11.4-4.8-8.1-4.5-3.6-2.7-5.1-3.6-8.4-7.5-6.6-5.7-3.6-5.7-2.7-5.1v-6l2.7-5.1,3.3-4.2,5.1-2.7,3-.9,3-1.2h3.9l3.9.9,3,1.8,7.2,6.6,1.2,2.1,1.2,1.2,8.7,6.9,3.6,2.7,3.3,1.5,6,3.3,6.6,2.4,4.8,2.4,4.2,1.2,3,.6h2.4l2.4-.3,2.7.6,1.8-.3,4.5.3,7.2.3,4.5-1.2h4.5l3.6-.6,3.9-.3,3.3-.9,2.4-1.2,3.9-1.2,5.1-3,6.6-5.4,4.2-5.1.9-2.4,1.8-4.5.6-5.7-.9-7.5-5.1-8.1-6-3.6-3.3-1.5-4.5-1.5-4.2-1.2-4.5-.6-4.5-1.2-4.2-.6-3.9-.9-4.2-.3-6.3-1.2-6.3-.6-3.3-.9-6.3-.6-12-2.1-4.2-.9-3.6-1.2-6-1.5-6-2.1-4.2-1.8-4.8-1.8-6.6-3.3-4.8-3-1.2-.6-3.3-2.7-3.9-3.6-2.1-1.8-1.8-2.4-2.4-3.6-1.5-2.7-3-4.8-3-11.7v-8.7l.6-5.1.9-6.9,1.2-4.5,1.2-3,1.5-3,1.2-2.7,2.1-3.3,3.3-4.5,9.3-9.3,3-1.5,4.2-3,5.1-2.4,3.9-3,3.3-1.8,2.7-1.2,2.7-.3,3-1.8,10.8-3,5.7-.9,6.9-.9,3.3-.6,3.9-.3,6.6-.6,6,.3h2.7l2.1.3,10.5.9,1.8.6h2.4l3,.6,2.7.6,3.6.6,7.8,3,3,1.8,2.7,1.2,3.9,2.4,7.5,3.3,4.2,3.9,6.6,5.1,5.7,6,5.1,7.2,2.7,5.1-.6,9-.6,1.8-1.2,2.1-2.4,2.1-5.4,3.3-5.7,2.1-4.8-.3-4.8-2.1-3-2.1-3.3-3.3-5.1-5.4-4.2-3.6-2.7-2.1-5.1-2.7-3.3-2.7-6.9-3-4.8-1.2-8.1-.9-5.4-.3-8.1.3-7.2.6-6,.3-9,1.8-8.7,3.9-3.6,2.1-4.8,3.3-6,5.4-1.8,4.5-1.2,3.6-.3,5.4,1.2,5.4,1.8,4.8,1.5,2.1,2.4,1.8,4.2,3.3,6.3,2.4,9.3,2.7,5.7,1.2,3.6.9,3.3.3,3.9.6,2.7.6,3.3,1.5h2.1l3,.3h6l3.6.9,5.1.9,6,1.5,3,.9,3,.3,1.2.9,7.8.9,13.8,3.6,6.6,3,6.3,2.7,5.1,3.9,1.8,1.8,4.2,3,4.5,5.1,1.8,3.6,1.8,3.3,1.2,2.1.6,2.4,1.8,4.8.6,4.2.3,1.2.6.6.3,4.2v11.1l-1.2,6.9-1.2,4.8-1.5,4.2-1.5,3-.6,2.1-2.1,3.6-2.7,3.9-2.4,2.7-2.1,2.7-1.5,1.5-2.1,2.7-2.7,2.7-3.6,2.4-5.1,3.3-3,1.8-2.1,1.2-3,1.5-3,1.2-2.1.9-4.2,1.2-6,2.1-7.8,1.8-7.2.6-4.5.6-6,.3h-11.7l-7.2-.3Z"/>
    </g>
  </g>
</svg>